<mxfile host="app.diagrams.net" modified="2022-03-06T11:16:27.916Z" agent="5.0 (Macintosh; Intel Mac OS X 10_15_7) AppleWebKit/537.36 (KHTML, like Gecko) Chrome/99.0.4844.51 Safari/537.36" etag="PDrmgAdJVDQDlMcsmXRW" version="16.6.6" type="github">
  <diagram id="XVQI4dqp2EpoJfUcZ8Ds" name="第 1 页">
    <mxGraphModel dx="1440" dy="888" grid="1" gridSize="10" guides="1" tooltips="1" connect="1" arrows="1" fold="1" page="1" pageScale="1" pageWidth="827" pageHeight="1169" math="0" shadow="0">
      <root>
        <mxCell id="0" />
        <mxCell id="1" parent="0" />
      </root>
    </mxGraphModel>
  </diagram>
</mxfile>
